STARTFONT 2.1
FONT PC Terminal
COMMENT 'PC Terminal 24'
COMMENT 'Font glyphs are based on pcterm20 font'
COMMENT 'Generated by Mike Gorchak, 2012'
SIZE 24 72 72
FONTBOUNDINGBOX 11 23 0 0
STARTPROPERTIES 2
FONT_ASCENT 24
FONT_DESCENT 0
ENDPROPERTIES
CHARS 256

STARTCHAR U+0000
ENCODING 0
SWIDTH 12000 0
DWIDTH 12 0
BBX 12 24 0 0
BITMAP
0000
0000
0000
0000
0000
0000
0000
0000
0000
0000
0000
0000
0000
0000
0000
0000
0000
0000
0000
0000
0000
0000
0000
0000
ENDCHAR

STARTCHAR U+0001
ENCODING 1
COMMENT 'Smile positive'
SWIDTH 12000 0
DWIDTH 12 0
BBX 12 24 0 0
BITMAP
0000
1F80
2040
4020
4020
59A0
59A0
59A0
4020
4020
4020
4020
4020
5FA0
4F20
4620
4020
4020
4020
2040
1F80
0000
0000
0000
ENDCHAR

STARTCHAR U+0002
ENCODING 2
COMMENT 'Smile negative'
SWIDTH 12000 0
DWIDTH 12 0
BBX 12 24 0 0
BITMAP
0000
1F80
3FC0
7FE0
7FE0
6660
6660
6660
7FE0
7FE0
7FE0
7FE0
7FE0
6060
70E0
79E0
7FE0
7FE0
7FE0
3FC0
1F80
0000
0000
0000
ENDCHAR

STARTCHAR U+0003
ENCODING 3
COMMENT 'Hearts'
SWIDTH 12000 0
DWIDTH 12 0
BBX 12 24 0 0
BITMAP
0000
0000
1080
39C0
3FC0
7FE0
7FE0
7FE0
7FE0
7FE0
3FC0
3FC0
1F80
1F80
0F00
0F00
0600
0600
0600
0000
0000
0000
0000
0000
ENDCHAR

STARTCHAR U+0004
ENCODING 4
COMMENT 'Diamonds'
SWIDTH 12000 0
DWIDTH 12 0
BBX 12 24 0 0
BITMAP
0000
0000
0000
0000
0000
0600
0F00
1F80
3FC0
7FE0
7FE0
3FC0
1F80
0F00
0600
0000
0000
0000
0000
0000
0000
0000
0000
0000
ENDCHAR

STARTCHAR U+0005
ENCODING 5
COMMENT 'Clubs'
SWIDTH 12000 0
DWIDTH 12 0
BBX 12 24 0 0
BITMAP
0000
0000
0600
0F00
1F80
3FC0
1F80
0F00
0600
36C0
7FE0
7FE0
36C0
0600
0600
0600
0F00
1F80
3FC0
0000
0000
0000
0000
0000
ENDCHAR

STARTCHAR U+0006
ENCODING 6
COMMENT 'Spades'
SWIDTH 12000 0
DWIDTH 12 0
BBX 12 24 0 0
BITMAP
0000
0000
0600
0600
0F00
0F00
1F80
1F80
3FC0
3FC0
7FE0
7FE0
36C0
0600
0600
0600
0F00
1F80
3FC0
0000
0000
0000
0000
0000
ENDCHAR

STARTCHAR U+0007
ENCODING 7
COMMENT 'Centered small dot'
SWIDTH 12000 0
DWIDTH 12 0
BBX 12 24 0 0
BITMAP
0000
0000
0000
0000
0000
0000
0000
0000
0000
0000
0E00
1F00
1F00
1F00
0E00
0000
0000
0000
0000
0000
0000
0000
0000
0000
ENDCHAR

STARTCHAR U+0008
ENCODING 8
COMMENT 'Centered inversed small dot'
SWIDTH 12000 0
DWIDTH 12 0
BBX 12 24 0 0
BITMAP
FFF0
FFF0
FFF0
FFF0
FFF0
FFF0
FFF0
FFF0
FFF0
FFF0
F1F0
E0F0
E0F0
E0F0
F1F0
FFF0
FFF0
FFF0
FFF0
FFF0
FFF0
FFF0
FFF0
FFF0
ENDCHAR

STARTCHAR U+0009
ENCODING 9
COMMENT 'Centered large dot'
SWIDTH 12000 0
DWIDTH 12 0
BBX 12 24 0 0
BITMAP
0000
0000
0000
0000
0000
0000
0000
0000
1F00
3F80
71C0
60C0
60C0
60C0
71C0
3F80
1F00
0000
0000
0000
0000
0000
0000
0000
ENDCHAR

STARTCHAR U+000A
ENCODING 10
COMMENT 'Centered inversed large dot'
SWIDTH 12000 0
DWIDTH 12 0
BBX 12 24 0 0
BITMAP
FFF0
FFF0
FFF0
FFF0
FFF0
FFF0
FFF0
FFF0
E0F0
C070
8E30
9F30
9F30
9F30
8E30
C070
E0F0
FFF0
FFF0
FFF0
FFF0
FFF0
FFF0
FFF0
ENDCHAR

STARTCHAR U+000B
ENCODING 11
COMMENT 'Mars sign'
SWIDTH 12000 0
DWIDTH 12 0
BBX 12 24 0 0
BITMAP
0000
0000
07E0
00E0
01E0
03A0
0720
0E20
1C00
3800
7F00
7F80
71C0
60C0
60C0
60C0
71C0
3F80
1F00
0000
0000
0000
0000
0000
ENDCHAR

STARTCHAR U+000C
ENCODING 12
COMMENT 'Venus sign'
SWIDTH 12000 0
DWIDTH 12 0
BBX 12 24 0 0
BITMAP
0000
0000
0F00
1F80
39C0
30C0
30C0
30C0
39C0
1F80
0F00
0600
0600
0600
3FC0
3FC0
0600
0600
0600
0000
0000
0000
0000
0000
ENDCHAR

STARTCHAR U+000D
ENCODING 13
COMMENT 'Note'
SWIDTH 12000 0
DWIDTH 12 0
BBX 12 24 0 0
BITMAP
0000
0000
07E0
07E0
0660
0660
07E0
07E0
0600
0600
0600
0600
0600
0600
0600
3E00
7E00
7E00
7E00
7E00
7E00
3C00
0000
0000
ENDCHAR

STARTCHAR U+000E
ENCODING 14
COMMENT 'Double note'
SWIDTH 12000 0
DWIDTH 12 0
BBX 12 24 0 0
BITMAP
0000
0000
0FE0
0FE0
0C60
0C60
0FE0
0FE0
0C60
0C60
0C60
0C60
0C60
0C60
0DE0
0FE0
3FE0
7FE0
7FE0
7DC0
7C00
3800
0000
0000
ENDCHAR

STARTCHAR U+000F
ENCODING 15
COMMENT 'Star'
SWIDTH 12000 0
DWIDTH 12 0
BBX 12 24 0 0
BITMAP
0000
0000
0600
0600
0600
4620
6660
36C0
1F80
0F00
1F80
1980
1980
1F80
0F00
1F80
36C0
6660
4620
0600
0600
0600
0000
0000
ENDCHAR

STARTCHAR U+0010
ENCODING 16
COMMENT 'Solid right arrow'
SWIDTH 12000 0
DWIDTH 12 0
BBX 12 24 0 0
BITMAP
0000
0000
4000
6000
7000
7800
7C00
7E00
7F00
7F80
7FC0
7FE0
7FC0
7F80
7F00
7E00
7C00
7800
7000
6000
4000
0000
0000
0000
ENDCHAR

STARTCHAR U+0011
ENCODING 17
COMMENT 'Solid left arrow'
SWIDTH 12000 0
DWIDTH 12 0
BBX 12 24 0 0
BITMAP
0000
0000
0020
0060
00E0
01E0
03E0
07E0
0FE0
1FE0
3FE0
7FE0
3FE0
1FE0
0FE0
07E0
03E0
01E0
00E0
0060
0020
0000
0000
0000
ENDCHAR

STARTCHAR U+0012
ENCODING 18
COMMENT 'Simple up-down arrow'
SWIDTH 12000 0
DWIDTH 12 0
BBX 12 24 0 0
BITMAP
0000
0000
0600
0F00
1F80
3FC0
0600
0600
0600
0600
0600
0600
0600
0600
0600
0600
0600
3FC0
1F80
0F00
0600
0000
0000
0000
ENDCHAR

STARTCHAR U+0013
ENCODING 19
COMMENT 'Double exclamation sign'
SWIDTH 12000 0
DWIDTH 12 0
BBX 12 24 0 0
BITMAP
0000
0000
1980
1980
1980
1980
1980
1980
1980
1980
1980
1980
1980
1980
1980
0000
0000
1980
1980
0000
0000
0000
0000
0000
ENDCHAR

STARTCHAR U+0014
ENCODING 20
COMMENT 'Paragraph sign'
SWIDTH 12000 0
DWIDTH 12 0
BBX 12 24 0 0
BITMAP
0000
0000
3FE0
6660
6660
6660
3E60
0660
0660
0660
0660
0660
0660
0660
0660
0660
0660
0660
0660
0000
0000
0000
0000
0000
ENDCHAR

STARTCHAR U+0015
ENCODING 21
COMMENT 'Chapter sign'
SWIDTH 12000 0
DWIDTH 12 0
BBX 12 24 0 0
BITMAP
0000
0700
0D80
18C0
3000
3000
1800
0C00
0600
0F00
1980
30C0
30C0
1980
0F00
0600
0300
0180
00C0
00C0
3180
1B00
0E00
0000
ENDCHAR

STARTCHAR U+0016
ENCODING 22
COMMENT 'Bottom filled box'
SWIDTH 12000 0
DWIDTH 12 0
BBX 12 24 0 0
BITMAP
0000
0000
0000
0000
0000
0000
0000
0000
0000
0000
0000
0000
0000
0000
7FE0
7FE0
7FE0
7FE0
7FE0
7FE0
7FE0
0000
0000
0000
ENDCHAR

STARTCHAR U+0017
ENCODING 23
COMMENT 'Simple up-down arrow'
SWIDTH 12000 0
DWIDTH 12 0
BBX 12 24 0 0
BITMAP
0000
0000
0600
0F00
1F80
3FC0
0600
0600
0600
0600
0600
0600
0600
0600
0600
3FC0
1F80
0F00
0600
0000
3FC0
0000
0000
0000
ENDCHAR

STARTCHAR U+0018
ENCODING 24
COMMENT 'Simple up arrow'
SWIDTH 12000 0
DWIDTH 12 0
BBX 12 24 0 0
BITMAP
0000
0000
0600
0F00
1F80
3FC0
0600
0600
0600
0600
0600
0600
0600
0600
0600
0600
0600
0600
0600
0600
0600
0000
0000
0000
ENDCHAR

STARTCHAR U+0019
ENCODING 25
COMMENT 'Simple down arrow'
SWIDTH 12000 0
DWIDTH 12 0
BBX 12 24 0 0
BITMAP
0000
0000
0600
0600
0600
0600
0600
0600
0600
0600
0600
0600
0600
0600
0600
0600
0600
3FC0
1F80
0F00
0600
0000
0000
0000
ENDCHAR

STARTCHAR U+001A
ENCODING 26
COMMENT 'Simple right arrow'
SWIDTH 12000 0
DWIDTH 12 0
BBX 12 24 0 0
BITMAP
0000
0000
0000
0000
0000
0000
0000
0000
0100
0180
01C0
7FE0
7FE0
01C0
0180
0100
0000
0000
0000
0000
0000
0000
0000
0000
ENDCHAR

STARTCHAR U+001B
ENCODING 27
COMMENT 'Simple left arrow'
SWIDTH 12000 0
DWIDTH 12 0
BBX 12 24 0 0
BITMAP
0000
0000
0000
0000
0000
0000
0000
0000
0800
1800
3800
7FE0
7FE0
3800
1800
0800
0000
0000
0000
0000
0000
0000
0000
0000
ENDCHAR

STARTCHAR U+001C
ENCODING 28
COMMENT 'Carret sign'
SWIDTH 12000 0
DWIDTH 12 0
BBX 12 24 0 0
BITMAP
0000
0000
0000
0000
0000
0000
0000
0000
4000
4000
4000
4000
4000
4000
7FE0
7FE0
0000
0000
0000
0000
0000
0000
0000
0000
ENDCHAR

STARTCHAR U+001D
ENCODING 29
COMMENT 'Left-right arrow'
SWIDTH 12000 0
DWIDTH 12 0
BBX 12 24 0 0
BITMAP
0000
0000
0000
0000
0000
0000
0000
0000
0900
1980
39C0
7FE0
7FE0
39C0
1980
0900
0000
0000
0000
0000
0000
0000
0000
0000
ENDCHAR

STARTCHAR U+001E
ENCODING 30
COMMENT 'Solid up arrow'
SWIDTH 12000 0
DWIDTH 12 0
BBX 12 24 0 0
BITMAP
0000
0000
0000
0000
0000
0000
0600
0600
0F00
0F00
1F80
1F80
3FC0
3FC0
7FE0
7FE0
0000
0000
0000
0000
0000
0000
0000
0000
ENDCHAR

STARTCHAR U+001F
ENCODING 31
COMMENT 'Solid down arrow'
SWIDTH 12000 0
DWIDTH 12 0
BBX 12 24 0 0
BITMAP
0000
0000
0000
0000
0000
0000
7FE0
7FE0
3FC0
3FC0
1F80
1F80
0F00
0F00
0600
0600
0000
0000
0000
0000
0000
0000
0000
0000
ENDCHAR

STARTCHAR U+0020
ENCODING 32
COMMENT ' '
SWIDTH 12000 0
DWIDTH 12 0
BBX 12 24 0 0
BITMAP
0000
0000
0000
0000
0000
0000
0000
0000
0000
0000
0000
0000
0000
0000
0000
0000
0000
0000
0000
0000
0000
0000
0000
0000
ENDCHAR

STARTCHAR U+0021
ENCODING 33
COMMENT '!'
SWIDTH 12000 0
DWIDTH 12 0
BBX 12 24 0 0
BITMAP
0000
0000
0600
0600
0600
0600
0600
0600
0600
0600
0600
0600
0600
0600
0600
0000
0000
0600
0600
0000
0000
0000
0000
0000
ENDCHAR

STARTCHAR U+0022
ENCODING 34
COMMENT '"'
SWIDTH 12000 0
DWIDTH 12 0
BBX 12 24 0 0
BITMAP
0000
0000
18C0
18C0
18C0
18C0
18C0
0880
0000
0000
0000
0000
0000
0000
0000
0000
0000
0000
0000
0000
0000
0000
0000
0000
ENDCHAR

STARTCHAR U+0023
ENCODING 35
COMMENT '#'
SWIDTH 12000 0
DWIDTH 12 0
BBX 12 24 0 0
BITMAP
0000
0000
0CC0
0CC0
0CC0
0CC0
0CC0
3FE0
1980
1980
1980
1980
1980
7FC0
3300
3300
3300
3300
3300
0000
0000
0000
0000
0000
ENDCHAR

STARTCHAR U+0024
ENCODING 36
COMMENT '$'
SWIDTH 12000 0
DWIDTH 12 0
BBX 12 24 0 0
BITMAP
0000
0000
0600
0600
1F80
36C0
6660
6600
6600
3600
1F80
06C0
0660
0660
6660
36C0
1F80
0600
0600
0000
0000
0000
0000
0000
ENDCHAR

STARTCHAR U+0025
ENCODING 37
COMMENT '%'
SWIDTH 12000 0
DWIDTH 12 0
BBX 12 24 0 0
BITMAP
0000
0000
0000
1C60
3660
36C0
36C0
1D80
0180
0300
0300
0600
0600
0C00
0DC0
1B60
1B60
3360
31C0
0000
0000
0000
0000
0000
ENDCHAR

STARTCHAR U+0026
ENCODING 38
COMMENT '&'
SWIDTH 12000 0
DWIDTH 12 0
BBX 12 24 0 0
BITMAP
0000
0000
1E00
3300
3300
3300
3300
3300
3600
1C00
1800
3C00
6610
6330
61E0
60C0
61E0
7330
3E10
0000
0000
0000
0000
0000
ENDCHAR

STARTCHAR U+0027
ENCODING 39
COMMENT '''
SWIDTH 12000 0
DWIDTH 12 0
BBX 12 24 0 0
BITMAP
0000
0000
01C0
0380
0700
0E00
0000
0000
0000
0000
0000
0000
0000
0000
0000
0000
0000
0000
0000
0000
0000
0000
0000
0000
ENDCHAR

STARTCHAR U+0028
ENCODING 40
COMMENT '('
SWIDTH 12000 0
DWIDTH 12 0
BBX 12 24 0 0
BITMAP
0000
0000
0180
0300
0600
0C00
0C00
1800
1800
1800
1800
1800
1800
1800
0C00
0C00
0600
0300
0180
0000
0000
0000
0000
0000
ENDCHAR

STARTCHAR U+0029
ENCODING 41
COMMENT ')'
SWIDTH 12000 0
DWIDTH 12 0
BBX 12 24 0 0
BITMAP
0000
0000
1800
0C00
0600
0300
0300
0180
0180
0180
0180
0180
0180
0180
0300
0300
0600
0C00
1800
0000
0000
0000
0000
0000
ENDCHAR

STARTCHAR U+002A
ENCODING 42
COMMENT '*'
SWIDTH 12000 0
DWIDTH 12 0
BBX 12 24 0 0
BITMAP
0000
0000
0000
0000
0000
0000
30C0
1980
1980
0F00
7FE0
0F00
1980
1980
30C0
0000
0000
0000
0000
0000
0000
0000
0000
0000
ENDCHAR

STARTCHAR U+002B
ENCODING 43
COMMENT '+'
SWIDTH 12000 0
DWIDTH 12 0
BBX 12 24 0 0
BITMAP
0000
0000
0000
0000
0000
0000
0600
0600
0600
0600
7FE0
0600
0600
0600
0600
0000
0000
0000
0000
0000
0000
0000
0000
0000
ENDCHAR

STARTCHAR U+002C
ENCODING 44
COMMENT ','
SWIDTH 12000 0
DWIDTH 12 0
BBX 12 24 0 0
BITMAP
0000
0000
0000
0000
0000
0000
0000
0000
0000
0000
0000
0000
0000
0000
0000
0000
0000
0700
0700
0E00
1C00
0000
0000
0000
ENDCHAR

STARTCHAR U+002D
ENCODING 45
COMMENT '-'
SWIDTH 12000 0
DWIDTH 12 0
BBX 12 24 0 0
BITMAP
0000
0000
0000
0000
0000
0000
0000
0000
0000
0000
7FE0
0000
0000
0000
0000
0000
0000
0000
0000
0000
0000
0000
0000
0000
ENDCHAR

STARTCHAR U+002E
ENCODING 46
COMMENT '.'
SWIDTH 12000 0
DWIDTH 12 0
BBX 12 24 0 0
BITMAP
0000
0000
0000
0000
0000
0000
0000
0000
0000
0000
0000
0000
0000
0000
0000
0000
0000
0700
0700
0000
0000
0000
0000
0000
ENDCHAR

STARTCHAR U+002F
ENCODING 47
COMMENT '/'
SWIDTH 12000 0
DWIDTH 12 0
BBX 12 24 0 0
BITMAP
0000
0000
0000
0060
0060
00C0
00C0
0180
0180
0300
0300
0600
0600
0C00
0C00
1800
1800
3000
3000
0000
0000
0000
0000
0000
ENDCHAR

STARTCHAR U+0030
ENCODING 48
COMMENT '0'
SWIDTH 12000 0
DWIDTH 12 0
BBX 12 24 0 0
BITMAP
0000
0000
0F00
1980
30C0
30C0
6060
6060
6060
6060
6060
6060
6060
6060
6060
30C0
30C0
1980
0F00
0000
0000
0000
0000
0000
ENDCHAR

STARTCHAR U+0031
ENCODING 49
COMMENT '1'
SWIDTH 12000 0
DWIDTH 12 0
BBX 12 24 0 0
BITMAP
0000
0000
0600
0E00
1E00
3600
6600
4600
0600
0600
0600
0600
0600
0600
0600
0600
0600
0600
7FE0
0000
0000
0000
0000
0000
ENDCHAR

STARTCHAR U+0032
ENCODING 50
COMMENT '2'
SWIDTH 12000 0
DWIDTH 12 0
BBX 12 24 0 0
BITMAP
0000
0000
1F80
30C0
6060
6060
6060
0060
0060
00C0
0180
0300
0600
0C00
1800
3000
6000
6000
7FE0
0000
0000
0000
0000
0000
ENDCHAR

STARTCHAR U+0033
ENCODING 51
COMMENT '3'
SWIDTH 12000 0
DWIDTH 12 0
BBX 12 24 0 0
BITMAP
0000
0000
1F80
30C0
6060
6060
6060
0060
0060
00C0
0780
00C0
0060
0060
6060
6060
6060
30C0
1F80
0000
0000
0000
0000
0000
ENDCHAR

STARTCHAR U+0034
ENCODING 52
COMMENT '4'
SWIDTH 12000 0
DWIDTH 12 0
BBX 12 24 0 0
BITMAP
0000
0000
0040
00C0
01C0
03C0
06C0
0CC0
18C0
30C0
60C0
60C0
7FE0
00C0
00C0
00C0
00C0
00C0
00C0
0000
0000
0000
0000
0000
ENDCHAR

STARTCHAR U+0035
ENCODING 53
COMMENT '5'
SWIDTH 12000 0
DWIDTH 12 0
BBX 12 24 0 0
BITMAP
0000
0000
7FE0
6000
6000
6000
6000
6000
6F80
70C0
0060
0060
0060
0060
0060
0060
6060
30C0
1F80
0000
0000
0000
0000
0000
ENDCHAR

STARTCHAR U+0036
ENCODING 54
COMMENT '6'
SWIDTH 12000 0
DWIDTH 12 0
BBX 12 24 0 0
BITMAP
0000
0000
1F80
30C0
6060
6060
6060
6000
6000
6F80
70C0
6060
6060
6060
6060
6060
6060
30C0
1F80
0000
0000
0000
0000
0000
ENDCHAR

STARTCHAR U+0037
ENCODING 55
COMMENT '7'
SWIDTH 12000 0
DWIDTH 12 0
BBX 12 24 0 0
BITMAP
0000
0000
7FE0
0060
0060
00C0
00C0
0180
0180
0300
0300
0600
0600
0C00
0C00
1800
1800
3000
3000
0000
0000
0000
0000
0000
ENDCHAR

STARTCHAR U+0038
ENCODING 56
COMMENT '8'
SWIDTH 12000 0
DWIDTH 12 0
BBX 12 24 0 0
BITMAP
0000
0000
1F80
30C0
6060
6060
6060
6060
6060
30C0
1F80
30C0
6060
6060
6060
6060
6060
30C0
1F80
0000
0000
0000
0000
0000
ENDCHAR

STARTCHAR U+0039
ENCODING 57
COMMENT '9'
SWIDTH 12000 0
DWIDTH 12 0
BBX 12 24 0 0
BITMAP
0000
0000
1F80
30C0
6060
6060
6060
6060
6060
6060
30E0
1F60
0060
0060
6060
6060
6060
30C0
1F80
0000
0000
0000
0000
0000
ENDCHAR

STARTCHAR U+003A
ENCODING 58
COMMENT ':'
SWIDTH 12000 0
DWIDTH 12 0
BBX 12 24 0 0
BITMAP
0000
0000
0000
0000
0000
0700
0700
0000
0000
0000
0000
0000
0000
0000
0700
0700
0000
0000
0000
0000
0000
0000
0000
0000
ENDCHAR

STARTCHAR U+003B
ENCODING 59
COMMENT ';'
SWIDTH 12000 0
DWIDTH 12 0
BBX 12 24 0 0
BITMAP
0000
0000
0000
0000
0000
0700
0700
0000
0000
0000
0000
0000
0000
0000
0700
0700
0E00
1C00
0000
0000
0000
0000
0000
0000
ENDCHAR

STARTCHAR U+003C
ENCODING 60
COMMENT '<'
SWIDTH 12000 0
DWIDTH 12 0
BBX 12 24 0 0
BITMAP
0000
0000
0040
00C0
0180
0300
0600
0C00
1800
3000
6000
3000
1800
0C00
0600
0300
0180
00C0
0040
0000
0000
0000
0000
0000
ENDCHAR

STARTCHAR U+003D
ENCODING 61
COMMENT '='
SWIDTH 12000 0
DWIDTH 12 0
BBX 12 24 0 0
BITMAP
0000
0000
0000
0000
0000
0000
7FE0
0000
0000
0000
0000
0000
0000
0000
7FE0
0000
0000
0000
0000
0000
0000
0000
0000
0000
ENDCHAR

STARTCHAR U+003E
ENCODING 62
COMMENT '>'
SWIDTH 12000 0
DWIDTH 12 0
BBX 12 24 0 0
BITMAP
0000
0000
2000
3000
1800
0C00
0600
0300
0180
00C0
0060
00C0
0180
0300
0600
0C00
1800
3000
2000
0000
0000
0000
0000
0000
ENDCHAR

STARTCHAR U+003F
ENCODING 63
COMMENT '?'
SWIDTH 12000 0
DWIDTH 12 0
BBX 12 24 0 0
BITMAP
0000
0000
1F80
30C0
6060
6060
6060
6060
0060
00C0
0180
0300
0600
0600
0600
0000
0000
0600
0600
0000
0000
0000
0000
0000
ENDCHAR

STARTCHAR U+0040
ENCODING 64
COMMENT '@'
SWIDTH 12000 0
DWIDTH 12 0
BBX 12 24 0 0
BITMAP
0000
0000
1F80
30C0
6060
6060
6060
6760
6960
6960
6960
6960
6B60
6DE0
6000
6000
6060
3060
1FC0
0000
0000
0000
0000
0000
ENDCHAR

STARTCHAR U+0041
ENCODING 65
COMMENT 'A'
SWIDTH 12000 0
DWIDTH 12 0
BBX 12 24 0 0
BITMAP
0000
0000
0F00
1980
30C0
30C0
6060
6060
6060
6060
6060
6060
7FE0
6060
6060
6060
6060
6060
6060
0000
0000
0000
0000
0000
ENDCHAR

STARTCHAR U+0042
ENCODING 66
COMMENT 'B'
SWIDTH 12000 0
DWIDTH 12 0
BBX 12 24 0 0
BITMAP
0000
0000
7F00
6180
60C0
60C0
60C0
60C0
60C0
6180
7F80
60C0
6060
6060
6060
6060
6060
60C0
7F80
0000
0000
0000
0000
0000
ENDCHAR

STARTCHAR U+0043
ENCODING 67
COMMENT 'C'
SWIDTH 12000 0
DWIDTH 12 0
BBX 12 24 0 0
BITMAP
0000
0000
1F80
30C0
6060
6060
6000
6000
6000
6000
6000
6000
6000
6000
6000
6060
6060
30C0
1F80
0000
0000
0000
0000
0000
ENDCHAR

STARTCHAR U+0044
ENCODING 68
COMMENT 'D'
SWIDTH 12000 0
DWIDTH 12 0
BBX 12 24 0 0
BITMAP
0000
0000
7F80
60C0
6060
6060
6060
6060
6060
6060
6060
6060
6060
6060
6060
6060
6060
60C0
7F80
0000
0000
0000
0000
0000
ENDCHAR

STARTCHAR U+0045
ENCODING 69
COMMENT 'E'
SWIDTH 12000 0
DWIDTH 12 0
BBX 12 24 0 0
BITMAP
0000
0000
7FE0
6000
6000
6000
6000
6000
6000
6000
7F80
6000
6000
6000
6000
6000
6000
6000
7FE0
0000
0000
0000
0000
0000
ENDCHAR

STARTCHAR U+0046
ENCODING 70
COMMENT 'F'
SWIDTH 12000 0
DWIDTH 12 0
BBX 12 24 0 0
BITMAP
0000
0000
7FE0
6000
6000
6000
6000
6000
6000
6000
7F80
6000
6000
6000
6000
6000
6000
6000
6000
0000
0000
0000
0000
0000
ENDCHAR

STARTCHAR U+0047
ENCODING 71
COMMENT 'G'
SWIDTH 12000 0
DWIDTH 12 0
BBX 12 24 0 0
BITMAP
0000
0000
1F80
30C0
6060
6060
6000
6000
6000
6000
63E0
6060
6060
6060
6060
6060
6060
30E0
1FA0
0000
0000
0000
0000
0000
ENDCHAR

STARTCHAR U+0048
ENCODING 72
COMMENT 'H'
SWIDTH 12000 0
DWIDTH 12 0
BBX 12 24 0 0
BITMAP
0000
0000
6060
6060
6060
6060
6060
6060
6060
6060
7FE0
6060
6060
6060
6060
6060
6060
6060
6060
0000
0000
0000
0000
0000
ENDCHAR

STARTCHAR U+0049
ENCODING 73
COMMENT 'I'
SWIDTH 12000 0
DWIDTH 12 0
BBX 12 24 0 0
BITMAP
0000
0000
7FE0
0600
0600
0600
0600
0600
0600
0600
0600
0600
0600
0600
0600
0600
0600
0600
7FE0
0000
0000
0000
0000
0000
ENDCHAR

STARTCHAR U+004A
ENCODING 74
COMMENT 'J'
SWIDTH 12000 0
DWIDTH 12 0
BBX 12 24 0 0
BITMAP
0000
0000
0FE0
0060
0060
0060
0060
0060
0060
0060
0060
0060
0060
0060
6060
6060
6060
30C0
1F80
0000
0000
0000
0000
0000
ENDCHAR

STARTCHAR U+004B
ENCODING 75
COMMENT 'K'
SWIDTH 12000 0
DWIDTH 12 0
BBX 12 24 0 0
BITMAP
0000
0000
6060
6060
60C0
60C0
6180
6180
6300
6300
7E00
6300
6300
6180
6180
60C0
60C0
6060
6060
0000
0000
0000
0000
0000
ENDCHAR

STARTCHAR U+004C
ENCODING 76
COMMENT 'L'
SWIDTH 12000 0
DWIDTH 12 0
BBX 12 24 0 0
BITMAP
0000
0000
6000
6000
6000
6000
6000
6000
6000
6000
6000
6000
6000
6000
6000
6000
6000
6000
7FE0
0000
0000
0000
0000
0000
ENDCHAR

STARTCHAR U+004D
ENCODING 77
COMMENT 'M'
SWIDTH 12000 0
DWIDTH 12 0
BBX 12 24 0 0
BITMAP
0000
0000
6060
6060
70E0
70E0
79E0
79E0
6F60
6F60
6660
6660
6060
6060
6060
6060
6060
6060
6060
0000
0000
0000
0000
0000
ENDCHAR

STARTCHAR U+004E
ENCODING 78
COMMENT 'N'
SWIDTH 12000 0
DWIDTH 12 0
BBX 12 24 0 0
BITMAP
0000
0000
6060
7060
7060
7860
7860
6C60
6C60
6660
6660
6360
6360
61E0
61E0
60E0
60E0
6060
6060
0000
0000
0000
0000
0000
ENDCHAR

STARTCHAR U+004F
ENCODING 79
COMMENT 'O'
SWIDTH 12000 0
DWIDTH 12 0
BBX 12 24 0 0
BITMAP
0000
0000
1F80
30C0
6060
6060
6060
6060
6060
6060
6060
6060
6060
6060
6060
6060
6060
30C0
1F80
0000
0000
0000
0000
0000
ENDCHAR

STARTCHAR U+0050
ENCODING 80
COMMENT 'P'
SWIDTH 12000 0
DWIDTH 12 0
BBX 12 24 0 0
BITMAP
0000
0000
7F80
60C0
6060
6060
6060
6060
6060
6060
60C0
7F80
6000
6000
6000
6000
6000
6000
6000
0000
0000
0000
0000
0000
ENDCHAR

STARTCHAR U+0051
ENCODING 81
COMMENT 'Q'
SWIDTH 12000 0
DWIDTH 12 0
BBX 12 24 0 0
BITMAP
0000
0000
1F80
30C0
6060
6060
6060
6060
6060
6060
6060
6060
6060
6060
6660
6360
61E0
30C0
1FC0
0060
0000
0000
0000
0000
ENDCHAR

STARTCHAR U+0052
ENCODING 82
COMMENT 'R'
SWIDTH 12000 0
DWIDTH 12 0
BBX 12 24 0 0
BITMAP
0000
0000
7F80
60C0
6060
6060
6060
6060
6060
6060
60C0
7F80
6300
6180
6180
60C0
60C0
6060
6060
0000
0000
0000
0000
0000
ENDCHAR

STARTCHAR U+0053
ENCODING 83
COMMENT 'S'
SWIDTH 12000 0
DWIDTH 12 0
BBX 12 24 0 0
BITMAP
0000
0000
1F80
30C0
6060
6060
6000
6000
6000
3000
1F80
00C0
0060
0060
0060
6060
6060
30C0
1F80
0000
0000
0000
0000
0000
ENDCHAR

STARTCHAR U+0054
ENCODING 84
COMMENT 'T'
SWIDTH 12000 0
DWIDTH 12 0
BBX 12 24 0 0
BITMAP
0000
0000
7FE0
0600
0600
0600
0600
0600
0600
0600
0600
0600
0600
0600
0600
0600
0600
0600
0600
0000
0000
0000
0000
0000
ENDCHAR

STARTCHAR U+0055
ENCODING 85
COMMENT 'U'
SWIDTH 12000 0
DWIDTH 12 0
BBX 12 24 0 0
BITMAP
0000
0000
6060
6060
6060
6060
6060
6060
6060
6060
6060
6060
6060
6060
6060
6060
6060
30C0
1F80
0000
0000
0000
0000
0000
ENDCHAR

STARTCHAR U+0056
ENCODING 86
COMMENT 'V'
SWIDTH 12000 0
DWIDTH 12 0
BBX 12 24 0 0
BITMAP
0000
0000
6060
6060
6060
6060
6060
30C0
30C0
30C0
1980
1980
1980
0F00
0F00
0F00
0600
0600
0600
0000
0000
0000
0000
0000
ENDCHAR

STARTCHAR U+0057
ENCODING 87
COMMENT 'W'
SWIDTH 12000 0
DWIDTH 12 0
BBX 12 24 0 0
BITMAP
0000
0000
6060
6060
6060
6060
6060
6060
6060
6060
6660
6660
6660
6660
6660
6660
6660
7FE0
39C0
0000
0000
0000
0000
0000
ENDCHAR

STARTCHAR U+0058
ENCODING 88
COMMENT 'X'
SWIDTH 12000 0
DWIDTH 12 0
BBX 12 24 0 0
BITMAP
0000
0000
6060
6060
30C0
30C0
1980
1980
0F00
0F00
0600
0F00
0F00
1980
1980
30C0
30C0
6060
6060
0000
0000
0000
0000
0000
ENDCHAR

STARTCHAR U+0059
ENCODING 89
COMMENT 'Y'
SWIDTH 12000 0
DWIDTH 12 0
BBX 12 24 0 0
BITMAP
0000
0000
6060
6060
30C0
30C0
1980
1980
0F00
0F00
0600
0600
0600
0600
0600
0600
0600
0600
0600
0000
0000
0000
0000
0000
ENDCHAR

STARTCHAR U+005A
ENCODING 90
COMMENT 'Z'
SWIDTH 12000 0
DWIDTH 12 0
BBX 12 24 0 0
BITMAP
0000
0000
7FE0
0060
00C0
00C0
0180
0300
0300
0600
0C00
0C00
1800
3000
3000
6000
6000
6000
7FE0
0000
0000
0000
0000
0000
ENDCHAR

STARTCHAR U+005B
ENCODING 91
COMMENT '['
SWIDTH 12000 0
DWIDTH 12 0
BBX 12 24 0 0
BITMAP
0000
0000
3FC0
3000
3000
3000
3000
3000
3000
3000
3000
3000
3000
3000
3000
3000
3000
3000
3FC0
0000
0000
0000
0000
0000
ENDCHAR

STARTCHAR U+005C
ENCODING 92
COMMENT '|'
SWIDTH 12000 0
DWIDTH 12 0
BBX 12 24 0 0
BITMAP
0000
0000
0000
3000
3000
1800
1800
0C00
0C00
0600
0600
0300
0300
0180
0180
00C0
00C0
0060
0060
0000
0000
0000
0000
0000
ENDCHAR

STARTCHAR U+005D
ENCODING 93
COMMENT ']'
SWIDTH 12000 0
DWIDTH 12 0
BBX 12 24 0 0
BITMAP
0000
0000
3FC0
00C0
00C0
00C0
00C0
00C0
00C0
00C0
00C0
00C0
00C0
00C0
00C0
00C0
00C0
00C0
3FC0
0000
0000
0000
0000
0000
ENDCHAR

STARTCHAR U+005E
ENCODING 94
COMMENT '^'
SWIDTH 12000 0
DWIDTH 12 0
BBX 12 24 0 0
BITMAP
0000
0000
0600
0600
0F00
0F00
1980
1980
30C0
30C0
6060
6060
0000
0000
0000
0000
0000
0000
0000
0000
0000
0000
0000
0000
ENDCHAR

STARTCHAR U+005F
ENCODING 95
COMMENT '_'
SWIDTH 12000 0
DWIDTH 12 0
BBX 12 24 0 0
BITMAP
0000
0000
0000
0000
0000
0000
0000
0000
0000
0000
0000
0000
0000
0000
0000
0000
0000
0000
0000
7FE0
0000
0000
0000
0000
ENDCHAR

STARTCHAR U+0060
ENCODING 96
COMMENT '`'
SWIDTH 12000 0
DWIDTH 12 0
BBX 12 24 0 0
BITMAP
0000
0000
3800
1C00
0E00
0700
0000
0000
0000
0000
0000
0000
0000
0000
0000
0000
0000
0000
0000
0000
0000
0000
0000
0000
ENDCHAR

STARTCHAR U+0061
ENCODING 97
COMMENT 'a'
SWIDTH 12000 0
DWIDTH 12 0
BBX 12 24 0 0
BITMAP
0000
0000
0000
0000
0000
0000
0000
3FC0
6060
6060
0060
0060
3FE0
6060
6060
6060
6060
6060
3FA0
0000
0000
0000
0000
0000
ENDCHAR

STARTCHAR U+0062
ENCODING 98
COMMENT 'b'
SWIDTH 12000 0
DWIDTH 12 0
BBX 12 24 0 0
BITMAP
0000
0000
6000
6000
6000
6000
6000
6F80
70C0
6060
6060
6060
6060
6060
6060
6060
6060
70C0
6F80
0000
0000
0000
0000
0000
ENDCHAR

STARTCHAR U+0063
ENCODING 99
COMMENT 'c'
SWIDTH 12000 0
DWIDTH 12 0
BBX 12 24 0 0
BITMAP
0000
0000
0000
0000
0000
0000
0000
1F80
30C0
6060
6060
6000
6000
6000
6000
6060
6060
30C0
1F80
0000
0000
0000
0000
0000
ENDCHAR

STARTCHAR U+0064
ENCODING 100
COMMENT 'd'
SWIDTH 12000 0
DWIDTH 12 0
BBX 12 24 0 0
BITMAP
0000
0000
0060
0060
0060
0060
0060
1F60
30E0
6060
6060
6060
6060
6060
6060
6060
6060
30E0
1F60
0000
0000
0000
0000
0000
ENDCHAR

STARTCHAR U+0065
ENCODING 101
COMMENT 'e'
SWIDTH 12000 0
DWIDTH 12 0
BBX 12 24 0 0
BITMAP
0000
0000
0000
0000
0000
0000
0000
1F80
30C0
6060
6060
6060
7FE0
6000
6000
6000
6060
30C0
1F80
0000
0000
0000
0000
0000
ENDCHAR

STARTCHAR U+0066
ENCODING 102
COMMENT 'f'
SWIDTH 12000 0
DWIDTH 12 0
BBX 12 24 0 0
BITMAP
0000
0000
07C0
0C60
0C60
0C60
0C00
0C00
0C00
0C00
0C00
0C00
7F80
0C00
0C00
0C00
0C00
0C00
0C00
0000
0000
0000
0000
0000
ENDCHAR

STARTCHAR U+0067
ENCODING 103
COMMENT 'g'
SWIDTH 12000 0
DWIDTH 12 0
BBX 12 24 0 0
BITMAP
0000
0000
0000
0000
0000
0000
0000
3FA0
60E0
60C0
60C0
60C0
60C0
60C0
3F80
6000
3FC0
6060
6060
6060
6060
6060
3FC0
0000
ENDCHAR

STARTCHAR U+0068
ENCODING 104
COMMENT 'h'
SWIDTH 12000 0
DWIDTH 12 0
BBX 12 24 0 0
BITMAP
0000
0000
6000
6000
6000
6000
6000
6F80
70C0
6060
6060
6060
6060
6060
6060
6060
6060
6060
6060
0000
0000
0000
0000
0000
ENDCHAR

STARTCHAR U+0069
ENCODING 105
COMMENT 'i'
SWIDTH 12000 0
DWIDTH 12 0
BBX 12 24 0 0
BITMAP
0000
0000
0000
0600
0600
0000
0000
3E00
0600
0600
0600
0600
0600
0600
0600
0600
0600
0600
7FE0
0000
0000
0000
0000
0000
ENDCHAR

STARTCHAR U+006A
ENCODING 106
COMMENT 'j'
SWIDTH 12000 0
DWIDTH 12 0
BBX 12 24 0 0
BITMAP
0000
0000
0000
0060
0060
0000
0000
03E0
0060
0060
0060
0060
0060
0060
0060
0060
0060
0060
0060
6060
6060
30C0
1F80
0000
ENDCHAR

STARTCHAR U+006B
ENCODING 107
COMMENT 'k'
SWIDTH 12000 0
DWIDTH 12 0
BBX 12 24 0 0
BITMAP
0000
0000
6000
6000
6000
6000
6000
60C0
6180
6300
6600
6C00
7800
7C00
6E00
6700
6380
61C0
60E0
0000
0000
0000
0000
0000
ENDCHAR

STARTCHAR U+006C
ENCODING 108
COMMENT 'l'
SWIDTH 12000 0
DWIDTH 12 0
BBX 12 24 0 0
BITMAP
0000
0000
3E00
0600
0600
0600
0600
0600
0600
0600
0600
0600
0600
0600
0600
0600
0600
0600
7FE0
0000
0000
0000
0000
0000
ENDCHAR

STARTCHAR U+006D
ENCODING 109
COMMENT 'm'
SWIDTH 12000 0
DWIDTH 12 0
BBX 12 24 0 0
BITMAP
0000
0000
0000
0000
0000
0000
0000
5DC0
7FE0
6660
6660
6660
6660
6660
6660
6660
6660
6660
6660
0000
0000
0000
0000
0000
ENDCHAR

STARTCHAR U+006E
ENCODING 110
COMMENT 'n'
SWIDTH 12000 0
DWIDTH 12 0
BBX 12 24 0 0
BITMAP
0000
0000
0000
0000
0000
0000
0000
6F80
70C0
6060
6060
6060
6060
6060
6060
6060
6060
6060
6060
0000
0000
0000
0000
0000
ENDCHAR

STARTCHAR U+006F
ENCODING 111
COMMENT 'o'
SWIDTH 12000 0
DWIDTH 12 0
BBX 12 24 0 0
BITMAP
0000
0000
0000
0000
0000
0000
0000
1F80
30C0
6060
6060
6060
6060
6060
6060
6060
6060
30C0
1F80
0000
0000
0000
0000
0000
ENDCHAR

STARTCHAR U+0070
ENCODING 112
COMMENT 'p'
SWIDTH 12000 0
DWIDTH 12 0
BBX 12 24 0 0
BITMAP
0000
0000
0000
0000
0000
0000
0000
6F80
70C0
6060
6060
6060
6060
6060
6060
6060
6060
70C0
6F80
6000
6000
6000
6000
6000
ENDCHAR

STARTCHAR U+0071
ENCODING 113
COMMENT 'q'
SWIDTH 12000 0
DWIDTH 12 0
BBX 12 24 0 0
BITMAP
0000
0000
0000
0000
0000
0000
0000
1F60
30E0
6060
6060
6060
6060
6060
6060
6060
6060
30E0
1F60
0060
0060
0060
0060
0060
ENDCHAR

STARTCHAR U+0072
ENCODING 114
COMMENT 'r'
SWIDTH 12000 0
DWIDTH 12 0
BBX 12 24 0 0
BITMAP
0000
0000
0000
0000
0000
0000
0000
6FC0
3860
3060
3000
3000
3000
3000
3000
3000
3000
3000
3000
0000
0000
0000
0000
0000
ENDCHAR

STARTCHAR U+0073
ENCODING 115
COMMENT 's'
SWIDTH 12000 0
DWIDTH 12 0
BBX 12 24 0 0
BITMAP
0000
0000
0000
0000
0000
0000
0000
3FC0
6060
6060
6000
6000
3FC0
0060
0060
0060
6060
6060
3FC0
0000
0000
0000
0000
0000
ENDCHAR

STARTCHAR U+0074
ENCODING 116
COMMENT 't'
SWIDTH 12000 0
DWIDTH 12 0
BBX 12 24 0 0
BITMAP
0000
0000
0000
0C00
0C00
0C00
0C00
7F80
0C00
0C00
0C00
0C00
0C00
0C00
0C00
0C00
0C60
0C60
07C0
0000
0000
0000
0000
0000
ENDCHAR

STARTCHAR U+0075
ENCODING 117
COMMENT 'u'
SWIDTH 12000 0
DWIDTH 12 0
BBX 12 24 0 0
BITMAP
0000
0000
0000
0000
0000
0000
0000
6060
6060
6060
6060
6060
6060
6060
6060
6060
6060
30E0
1F60
0000
0000
0000
0000
0000
ENDCHAR

STARTCHAR U+0076
ENCODING 118
COMMENT 'v'
SWIDTH 12000 0
DWIDTH 12 0
BBX 12 24 0 0
BITMAP
0000
0000
0000
0000
0000
0000
0000
6060
6060
6060
6060
30C0
30C0
1980
1980
0F00
0F00
0600
0600
0000
0000
0000
0000
0000
ENDCHAR

STARTCHAR U+0077
ENCODING 119
COMMENT 'w'
SWIDTH 12000 0
DWIDTH 12 0
BBX 12 24 0 0
BITMAP
0000
0000
0000
0000
0000
0000
0000
6060
6060
6060
6660
6660
6660
6660
6660
6660
6660
7FE0
39C0
0000
0000
0000
0000
0000
ENDCHAR

STARTCHAR U+0078
ENCODING 120
COMMENT 'x'
SWIDTH 12000 0
DWIDTH 12 0
BBX 12 24 0 0
BITMAP
0000
0000
0000
0000
0000
0000
0000
6060
6060
30C0
30C0
1980
0F00
0F00
1980
30C0
30C0
6060
6060
0000
0000
0000
0000
0000
ENDCHAR

STARTCHAR U+0079
ENCODING 121
COMMENT 'y'
SWIDTH 12000 0
DWIDTH 12 0
BBX 12 24 0 0
BITMAP
0000
0000
0000
0000
0000
0000
0000
6060
6060
6060
6060
6060
6060
6060
6060
30E0
1F60
0060
0060
0060
6060
6060
30C0
1F80
ENDCHAR

STARTCHAR U+007A
ENCODING 122
COMMENT 'z'
SWIDTH 12000 0
DWIDTH 12 0
BBX 12 24 0 0
BITMAP
0000
0000
0000
0000
0000
0000
0000
7FE0
0060
00C0
0180
0300
0600
0C00
1800
3000
6000
6000
7FE0
0000
0000
0000
0000
0000
ENDCHAR

STARTCHAR U+007B
ENCODING 123
COMMENT '{'
SWIDTH 12000 0
DWIDTH 12 0
BBX 12 24 0 0
BITMAP
0000
0000
03E0
0600
0600
0600
0600
0600
0600
0C00
7800
0C00
0600
0600
0600
0600
0600
0600
03E0
0000
0000
0000
0000
0000
ENDCHAR

STARTCHAR U+007C
ENCODING 124
COMMENT '|'
SWIDTH 12000 0
DWIDTH 12 0
BBX 12 24 0 0
BITMAP
0000
0000
0600
0600
0600
0600
0600
0600
0000
0000
0000
0000
0000
0600
0600
0600
0600
0600
0600
0000
0000
0000
0000
0000
ENDCHAR

STARTCHAR U+007D
ENCODING 125
COMMENT '}'
SWIDTH 12000 0
DWIDTH 12 0
BBX 12 24 0 0
BITMAP
0000
0000
7C00
0600
0600
0600
0600
0600
0600
0300
01E0
0300
0600
0600
0600
0600
0600
0600
7C00
0000
0000
0000
0000
0000
ENDCHAR

STARTCHAR U+007E
ENCODING 126
COMMENT '~'
SWIDTH 12000 0
DWIDTH 12 0
BBX 12 24 0 0
BITMAP
0000
0000
3860
7C60
6660
63E0
61C0
0000
0000
0000
0000
0000
0000
0000
0000
0000
0000
0000
0000
0000
0000
0000
0000
0000
ENDCHAR

STARTCHAR U+007F
ENCODING 127
COMMENT 'House symbol'
SWIDTH 12000 0
DWIDTH 12 0
BBX 12 24 0 0
BITMAP
0000
0000
0000
0000
0000
0600
0F00
1980
30C0
6060
4020
4020
4020
4020
4020
4020
4020
7FE0
7FE0
0000
0000
0000
0000
0000
ENDCHAR

STARTCHAR U+0080
ENCODING 128
COMMENT 'Capital C cedilla'
SWIDTH 12000 0
DWIDTH 12 0
BBX 12 24 0 0
BITMAP
0000
0000
1F80
30C0
6060
6060
6000
6000
6000
6000
6000
6000
6000
6000
6000
6060
6060
30C0
1F80
0180
30C0
1F80
0000
0000
ENDCHAR

STARTCHAR U+0081
ENCODING 129
COMMENT 'U umlaut'
SWIDTH 12000 0
DWIDTH 12 0
BBX 12 24 0 0
BITMAP
0000
0000
0000
30C0
30C0
0000
0000
6060
6060
6060
6060
6060
6060
6060
6060
6060
6060
30E0
1F60
0000
0000
0000
0000
0000
ENDCHAR

STARTCHAR U+0082
ENCODING 130
COMMENT 'e acute'
SWIDTH 12000 0
DWIDTH 12 0
BBX 12 24 0 0
BITMAP
0000
0180
0300
0600
0C00
0000
0000
1F80
30C0
6060
6060
6060
7FE0
6000
6000
6000
6060
30C0
1F80
0000
0000
0000
0000
0000
ENDCHAR

STARTCHAR U+0083
ENCODING 131
COMMENT 'a circumflex'
SWIDTH 12000 0
DWIDTH 12 0
BBX 12 24 0 0
BITMAP
0000
0600
0F00
1980
30C0
0000
0000
3FC0
6060
6060
0060
0060
3FE0
6060
6060
6060
6060
6060
3FA0
0000
0000
0000
0000
0000
ENDCHAR

STARTCHAR U+0084
ENCODING 132
COMMENT 'a umlaut'
SWIDTH 12000 0
DWIDTH 12 0
BBX 12 24 0 0
BITMAP
0000
0000
0000
30C0
30C0
0000
0000
3FC0
6060
6060
0060
0060
3FE0
6060
6060
6060
6060
6060
3FA0
0000
0000
0000
0000
0000
ENDCHAR

STARTCHAR U+0085
ENCODING 133
COMMENT 'a grave'
SWIDTH 12000 0
DWIDTH 12 0
BBX 12 24 0 0
BITMAP
0000
1800
0C00
0600
0300
0000
0000
3FC0
6060
6060
0060
0060
3FE0
6060
6060
6060
6060
6060
3FA0
0000
0000
0000
0000
0000
ENDCHAR

STARTCHAR U+0086
ENCODING 134
COMMENT 'a ring'
SWIDTH 12000 0
DWIDTH 12 0
BBX 12 24 0 0
BITMAP
0000
0E00
1100
1100
0E00
0000
0000
3FC0
6060
6060
0060
0060
3FE0
6060
6060
6060
6060
6060
3FA0
0000
0000
0000
0000
0000
ENDCHAR

STARTCHAR U+0087
ENCODING 135
COMMENT 'c cedilla'
SWIDTH 12000 0
DWIDTH 12 0
BBX 12 24 0 0
BITMAP
0000
0000
0000
0000
0000
0000
0000
1F80
30C0
6060
6060
6000
6000
6000
6000
6060
6060
30C0
1F80
0180
30C0
1F80
0000
0000
ENDCHAR

STARTCHAR U+0088
ENCODING 136
COMMENT 'e circumflex'
SWIDTH 12000 0
DWIDTH 12 0
BBX 12 24 0 0
BITMAP
0000
0600
0F00
1980
30C0
0000
0000
1F80
30C0
6060
6060
6060
7FE0
6000
6000
6000
6060
30C0
1F80
0000
0000
0000
0000
0000
ENDCHAR

STARTCHAR U+0089
ENCODING 137
COMMENT 'e umlaut'
SWIDTH 12000 0
DWIDTH 12 0
BBX 12 24 0 0
BITMAP
0000
0000
0000
30C0
30C0
0000
0000
1F80
30C0
6060
6060
6060
7FE0
6000
6000
6000
6060
30C0
1F80
0000
0000
0000
0000
0000
ENDCHAR

STARTCHAR U+008A
ENCODING 138
COMMENT 'e grave'
SWIDTH 12000 0
DWIDTH 12 0
BBX 12 24 0 0
BITMAP
0000
1800
0C00
0600
0300
0000
0000
1F80
30C0
6060
6060
6060
7FE0
6000
6000
6000
6060
30C0
1F80
0000
0000
0000
0000
0000
ENDCHAR

STARTCHAR U+008B
ENCODING 139
COMMENT 'i umlaut'
SWIDTH 12000 0
DWIDTH 12 0
BBX 12 24 0 0
BITMAP
0000
0000
0000
30C0
30C0
0000
0000
3E00
0600
0600
0600
0600
0600
0600
0600
0600
0600
0600
7FE0
0000
0000
0000
0000
0000
ENDCHAR

STARTCHAR U+008C
ENCODING 140
COMMENT 'i circumflex'
SWIDTH 12000 0
DWIDTH 12 0
BBX 12 24 0 0
BITMAP
0000
0600
0F00
1980
30C0
0000
0000
3E00
0600
0600
0600
0600
0600
0600
0600
0600
0600
0600
7FE0
0000
0000
0000
0000
0000
ENDCHAR

STARTCHAR U+008D
ENCODING 141
COMMENT 'i grave'
SWIDTH 12000 0
DWIDTH 12 0
BBX 12 24 0 0
BITMAP
0000
1800
0C00
0600
0300
0000
0000
3E00
0600
0600
0600
0600
0600
0600
0600
0600
0600
0600
7FE0
0000
0000
0000
0000
0000
ENDCHAR

STARTCHAR U+008E
ENCODING 142
COMMENT 'Capital A umlaut'
SWIDTH 12000 0
DWIDTH 12 0
BBX 12 24 0 0
BITMAP
0000
30C0
30C0
0000
0000
0F00
1980
30C0
6060
6060
6060
6060
7FE0
6060
6060
6060
6060
6060
6060
0000
0000
0000
0000
0000
ENDCHAR

STARTCHAR U+008F
ENCODING 143
COMMENT 'Capital A ring'
SWIDTH 12000 0
DWIDTH 12 0
BBX 12 24 0 0
BITMAP
0600
0900
0900
0600
0000
0F00
1980
30C0
6060
6060
6060
6060
7FE0
6060
6060
6060
6060
6060
6060
0000
0000
0000
0000
0000
ENDCHAR

STARTCHAR U+0090
ENCODING 144
COMMENT 'Capital E acute'
SWIDTH 12000 0
DWIDTH 12 0
BBX 12 24 0 0
BITMAP
0180
0300
0600
0C00
0000
7FE0
6000
6000
6000
6000
6000
7F80
6000
6000
6000
6000
6000
6000
7FE0
0000
0000
0000
0000
0000
ENDCHAR

STARTCHAR U+0091
ENCODING 145
COMMENT 'ae ligature'
SWIDTH 12000 0
DWIDTH 12 0
BBX 12 24 0 0
BITMAP
0000
0000
0000
0000
0000
0000
0000
3BC0
6E60
4660
0660
0660
3FE0
6600
6600
6600
6620
6760
3DC0
0000
0000
0000
0000
0000
ENDCHAR

STARTCHAR U+0092
ENCODING 146
COMMENT 'Capital ae ligature'
SWIDTH 12000 0
DWIDTH 12 0
BBX 12 24 0 0
BITMAP
0000
0000
0FE0
1B00
3300
6300
6300
6300
6300
6300
7FC0
6300
6300
6300
6300
6300
6300
6300
63E0
0000
0000
0000
0000
0000
ENDCHAR

STARTCHAR U+0093
ENCODING 147
COMMENT 'o circumflex'
SWIDTH 12000 0
DWIDTH 12 0
BBX 12 24 0 0
BITMAP
0000
0600
0F00
1980
30C0
0000
0000
1F80
30C0
6060
6060
6060
6060
6060
6060
6060
6060
30C0
1F80
0000
0000
0000
0000
0000
ENDCHAR

STARTCHAR U+0094
ENCODING 148
COMMENT 'o umlaut'
SWIDTH 12000 0
DWIDTH 12 0
BBX 12 24 0 0
BITMAP
0000
0000
0000
30C0
30C0
0000
0000
1F80
30C0
6060
6060
6060
6060
6060
6060
6060
6060
30C0
1F80
0000
0000
0000
0000
0000
ENDCHAR

STARTCHAR U+0095
ENCODING 149
COMMENT 'o grave'
SWIDTH 12000 0
DWIDTH 12 0
BBX 12 24 0 0
BITMAP
0000
1800
0C00
0600
0300
0000
0000
1F80
30C0
6060
6060
6060
6060
6060
6060
6060
6060
30C0
1F80
0000
0000
0000
0000
0000
ENDCHAR

STARTCHAR U+0096
ENCODING 150
COMMENT 'U circumflex'
SWIDTH 12000 0
DWIDTH 12 0
BBX 12 24 0 0
BITMAP
0000
0600
0F00
1980
30C0
0000
0000
6060
6060
6060
6060
6060
6060
6060
6060
6060
6060
30E0
1F60
0000
0000
0000
0000
0000
ENDCHAR

STARTCHAR U+0097
ENCODING 151
COMMENT 'U grave'
SWIDTH 12000 0
DWIDTH 12 0
BBX 12 24 0 0
BITMAP
0000
1800
0C00
0600
0300
0000
0000
6060
6060
6060
6060
6060
6060
6060
6060
6060
6060
30E0
1F60
0000
0000
0000
0000
0000
ENDCHAR

STARTCHAR U+0098
ENCODING 152
COMMENT 'y umlaut'
SWIDTH 12000 0
DWIDTH 12 0
BBX 12 24 0 0
BITMAP
0000
0000
0000
30C0
30C0
0000
0000
6060
6060
6060
6060
6060
6060
6060
6060
30E0
1F60
0060
0060
6060
6060
6060
30C0
1F80
ENDCHAR

STARTCHAR U+0099
ENCODING 153
COMMENT 'Capital O umlaut'
SWIDTH 12000 0
DWIDTH 12 0
BBX 12 24 0 0
BITMAP
0000
30C0
30C0
0000
0000
1F80
30C0
6060
6060
6060
6060
6060
6060
6060
6060
6060
6060
30C0
1F80
0000
0000
0000
0000
0000
ENDCHAR

STARTCHAR U+009A
ENCODING 154
COMMENT 'Capital U umlaut'
SWIDTH 12000 0
DWIDTH 12 0
BBX 12 24 0 0
BITMAP
0000
30C0
30C0
0000
0000
6060
6060
6060
6060
6060
6060
6060
6060
6060
6060
6060
6060
30C0
1F80
0000
0000
0000
0000
0000
ENDCHAR

STARTCHAR U+009B
ENCODING 155
COMMENT 'cent sign'
SWIDTH 12000 0
DWIDTH 12 0
BBX 12 24 0 0
BITMAP
0000
0000
0000
0000
0000
0600
0600
1FC0
3660
6660
6600
6600
6600
6600
6600
6600
6660
3660
1FC0
0600
0600
0000
0000
0000
ENDCHAR

STARTCHAR U+009C
ENCODING 156
COMMENT 'UK pound sign'
SWIDTH 12000 0
DWIDTH 12 0
BBX 12 24 0 0
BITMAP
0000
0000
0F80
08C0
18C0
1800
1800
1800
1800
7E00
1800
1800
1800
1800
1800
1800
1800
3C60
37C0
0000
0000
0000
0000
0000
ENDCHAR

STARTCHAR U+009D
ENCODING 157
COMMENT 'Japanese yen sign'
SWIDTH 12000 0
DWIDTH 12 0
BBX 12 24 0 0
BITMAP
0000
0000
6060
6060
30C0
30C0
1980
1980
0F00
0F00
0600
3FC0
0600
0600
3FC0
0600
0600
0600
0600
0000
0000
0000
0000
0000
ENDCHAR

STARTCHAR U+009E
ENCODING 158
COMMENT 'Spanish peseta sign'
SWIDTH 12000 0
DWIDTH 12 0
BBX 12 24 0 0
BITMAP
0000
0000
7F80
60C0
6060
6060
6060
6060
60C0
7F80
6000
6300
6300
6300
6780
6300
6300
6360
61C0
0000
0000
0000
0000
0000
ENDCHAR

STARTCHAR U+009F
ENCODING 159
COMMENT 'Netherlands guilder sign'
SWIDTH 12000 0
DWIDTH 12 0
BBX 12 24 0 0
BITMAP
0000
0000
03C0
0660
0600
0600
0600
0600
0600
0600
3FC0
0600
0600
0600
0600
0600
0600
0600
0600
0600
6600
3C00
0000
0000
ENDCHAR

STARTCHAR U+00A0
ENCODING 160
COMMENT 'a acute'
SWIDTH 12000 0
DWIDTH 12 0
BBX 12 24 0 0
BITMAP
0000
0180
0300
0600
0C00
0000
0000
3FC0
6060
6060
0060
0060
3FE0
6060
6060
6060
6060
6060
3FA0
0000
0000
0000
0000
0000
ENDCHAR

STARTCHAR U+00A1
ENCODING 161
COMMENT 'i acute'
SWIDTH 12000 0
DWIDTH 12 0
BBX 12 24 0 0
BITMAP
0000
0180
0300
0600
0C00
0000
0000
3E00
0600
0600
0600
0600
0600
0600
0600
0600
0600
0600
7FE0
0000
0000
0000
0000
0000
ENDCHAR

STARTCHAR U+00A2
ENCODING 162
COMMENT 'o acute'
SWIDTH 12000 0
DWIDTH 12 0
BBX 12 24 0 0
BITMAP
0000
0180
0300
0600
0C00
0000
0000
1F80
30C0
6060
6060
6060
6060
6060
6060
6060
6060
30C0
1F80
0000
0000
0000
0000
0000
ENDCHAR

STARTCHAR U+00A3
ENCODING 163
COMMENT 'U acute'
SWIDTH 12000 0
DWIDTH 12 0
BBX 12 24 0 0
BITMAP
0000
0180
0300
0600
0C00
0000
0000
6060
6060
6060
6060
6060
6060
6060
6060
6060
6060
30E0
1F60
0000
0000
0000
0000
0000
ENDCHAR

STARTCHAR U+00A4
ENCODING 164
COMMENT 'n tilde symbol'
SWIDTH 12000 0
DWIDTH 12 0
BBX 12 24 0 0
BITMAP
0000
0000
0000
6780
3CC0
0000
0000
6F80
70C0
6060
6060
6060
6060
6060
6060
6060
6060
6060
6060
0000
0000
0000
0000
0000
ENDCHAR

STARTCHAR U+00A5
ENCODING 165
COMMENT 'Capital N tilde symbol'
SWIDTH 12000 0
DWIDTH 12 0
BBX 12 24 0 0
BITMAP
0000
6780
3CC0
0000
6060
7060
7060
7860
7860
6C60
6C60
6660
6660
6360
6360
61E0
61E0
60E0
60E0
0000
0000
0000
0000
0000
ENDCHAR

STARTCHAR U+00A6
ENCODING 166
COMMENT 'Superscript underlined "a" symbol'
SWIDTH 12000 0
DWIDTH 12 0
BBX 12 24 0 0
BITMAP
0000
3F80
6180
6180
6180
6180
6180
6380
3E80
0000
0000
7F80
7F80
0000
0000
0000
0000
0000
0000
0000
0000
0000
0000
0000
ENDCHAR

STARTCHAR U+00A7
ENCODING 167
COMMENT 'Superscript underlined "o" symbol'
SWIDTH 12000 0
DWIDTH 12 0
BBX 12 24 0 0
BITMAP
0000
1E00
3300
6180
6180
6180
6180
3300
1E00
0000
0000
7F80
7F80
0000
0000
0000
0000
0000
0000
0000
0000
0000
0000
0000
ENDCHAR

STARTCHAR U+00A8
ENCODING 168
COMMENT 'Inverted question mark "?"'
SWIDTH 12000 0
DWIDTH 12 0
BBX 12 24 0 0
BITMAP
0000
0000
0600
0600
0000
0000
0600
0600
0600
0300
0180
00C0
0060
6060
6060
6060
6060
30C0
1F80
0000
0000
0000
0000
0000
ENDCHAR

STARTCHAR U+00A9
ENCODING 169
COMMENT 'Logical sign left'
SWIDTH 12000 0
DWIDTH 12 0
BBX 12 24 0 0
BITMAP
0000
0000
0000
0000
0000
0000
0000
7FE0
7FE0
4000
4000
4000
4000
4000
4000
0000
0000
0000
0000
0000
0000
0000
0000
0000
ENDCHAR

STARTCHAR U+00AA
ENCODING 170
COMMENT 'Logical sign right'
SWIDTH 12000 0
DWIDTH 12 0
BBX 12 24 0 0
BITMAP
0000
0000
0000
0000
0000
0000
0000
7FE0
7FE0
0020
0020
0020
0020
0020
0020
0000
0000
0000
0000
0000
0000
0000
0000
0000
ENDCHAR

STARTCHAR U+00AB
ENCODING 171
COMMENT '1/2 sign (one half)'
SWIDTH 12000 0
DWIDTH 12 0
BBX 12 24 0 0
BITMAP
0000
0000
3800
1800
1800
1820
1860
18C0
1980
1B00
0600
0C00
1BC0
3460
6060
4060
03C0
0600
0600
07E0
0000
0000
0000
0000
ENDCHAR

STARTCHAR U+00AC
ENCODING 172
COMMENT '1/4 sign (one quarter)'
SWIDTH 12000 0
DWIDTH 12 0
BBX 12 24 0 0
BITMAP
0000
0000
3800
1800
1800
1820
1860
18C0
1980
1B00
0600
0C00
19C0
33C0
66C0
4CC0
0CC0
0FC0
00C0
00C0
0000
0000
0000
0000
ENDCHAR

STARTCHAR U+00AD
ENCODING 173
COMMENT 'Upside down version of exclamation sign !'
SWIDTH 12000 0
DWIDTH 12 0
BBX 12 24 0 0
BITMAP
0000
0000
0600
0600
0000
0000
0600
0600
0600
0600
0600
0600
0600
0600
0600
0600
0600
0600
0600
0000
0000
0000
0000
0000
ENDCHAR

STARTCHAR U+00AE
ENCODING 174
COMMENT 'Towards left'
SWIDTH 12000 0
DWIDTH 12 0
BBX 12 24 0 0
BITMAP
0000
0000
0000
0000
0000
0000
0000
0660
0CC0
1980
3300
6600
3300
1980
0CC0
0660
0000
0000
0000
0000
0000
0000
0000
0000
ENDCHAR

STARTCHAR U+00AF
ENCODING 175
COMMENT 'Towards right'
SWIDTH 12000 0
DWIDTH 12 0
BBX 12 24 0 0
BITMAP
0000
0000
0000
0000
0000
0000
0000
6600
3300
1980
0CC0
0660
0CC0
1980
3300
6600
0000
0000
0000
0000
0000
0000
0000
0000
ENDCHAR

STARTCHAR U+00B0
ENCODING 176
COMMENT '25% fill box'
SWIDTH 12000 0
DWIDTH 12 0
BBX 12 24 0 0
BITMAP
AAA0
0000
5550
0000
AAA0
0000
5550
0000
AAA0
0000
5550
0000
AAA0
0000
5550
0000
AAA0
0000
5550
0000
AAA0
0000
5550
0000
ENDCHAR

STARTCHAR U+00B1
ENCODING 177
COMMENT '50% fill box'
SWIDTH 12000 0
DWIDTH 12 0
BBX 12 24 0 0
BITMAP
AAA0
5550
AAA0
5550
AAA0
5550
AAA0
5550
AAA0
5550
AAA0
5550
AAA0
5550
AAA0
5550
AAA0
5550
AAA0
5550
AAA0
5550
AAA0
5550
ENDCHAR

STARTCHAR U+00B2
ENCODING 178
COMMENT '75% fill box'
SWIDTH 12000 0
DWIDTH 12 0
BBX 12 24 0 0
BITMAP
EEE0
BBB0
EEE0
BBB0
EEE0
BBB0
EEE0
BBB0
EEE0
BBB0
EEE0
BBB0
EEE0
BBB0
EEE0
BBB0
EEE0
BBB0
EEE0
BBB0
EEE0
BBB0
EEE0
BBB0
ENDCHAR

STARTCHAR U+00B3
ENCODING 179
COMMENT 'vertical single line'
SWIDTH 12000 0
DWIDTH 12 0
BBX 12 24 0 0
BITMAP
0600
0600
0600
0600
0600
0600
0600
0600
0600
0600
0600
0600
0600
0600
0600
0600
0600
0600
0600
0600
0600
0600
0600
0600
ENDCHAR

STARTCHAR U+00B4
ENCODING 180
COMMENT 'vertical single line with attached single line from left'
SWIDTH 12000 0
DWIDTH 12 0
BBX 12 24 0 0
BITMAP
0600
0600
0600
0600
0600
0600
0600
0600
0600
0600
0600
FE00
FE00
0600
0600
0600
0600
0600
0600
0600
0600
0600
0600
0600
ENDCHAR

STARTCHAR U+00B5
ENCODING 181
COMMENT 'single vertical line with attached double line from left'
SWIDTH 12000 0
DWIDTH 12 0
BBX 12 24 0 0
BITMAP
0600
0600
0600
0600
0600
0600
0600
0600
0600
FE00
FE00
0600
0600
FE00
FE00
0600
0600
0600
0600
0600
0600
0600
0600
0600
ENDCHAR

STARTCHAR U+00B6
ENCODING 182
COMMENT 'double vertical line with attached single line from left'
SWIDTH 12000 0
DWIDTH 12 0
BBX 12 24 0 0
BITMAP
1980
1980
1980
1980
1980
1980
1980
1980
1980
1980
1980
F980
F980
1980
1980
1980
1980
1980
1980
1980
1980
1980
1980
1980
ENDCHAR

STARTCHAR U+00B7
ENCODING 183
COMMENT 'single corner line from left to double bottom line'
SWIDTH 12000 0
DWIDTH 12 0
BBX 12 24 0 0
BITMAP
0000
0000
0000
0000
0000
0000
0000
0000
0000
0000
0000
FF80
FF80
1980
1980
1980
1980
1980
1980
1980
1980
1980
1980
1980
ENDCHAR

STARTCHAR U+00B8
ENCODING 184
COMMENT 'double corner line from left to single bottom line'
SWIDTH 12000 0
DWIDTH 12 0
BBX 12 24 0 0
BITMAP
0000
0000
0000
0000
0000
0000
0000
0000
0000
FE00
FE00
0600
0600
FE00
FE00
0600
0600
0600
0600
0600
0600
0600
0600
0600
ENDCHAR

STARTCHAR U+00B9
ENCODING 185
COMMENT 'double vertical line with attached double line from left'
SWIDTH 12000 0
DWIDTH 12 0
BBX 12 24 0 0
BITMAP
1980
1980
1980
1980
1980
1980
1980
1980
1980
F980
F980
0180
0180
F980
F980
1980
1980
1980
1980
1980
1980
1980
1980
1980
ENDCHAR

STARTCHAR U+00BA
ENCODING 186
COMMENT 'double vertical line'
SWIDTH 12000 0
DWIDTH 12 0
BBX 12 24 0 0
BITMAP
1980
1980
1980
1980
1980
1980
1980
1980
1980
1980
1980
1980
1980
1980
1980
1980
1980
1980
1980
1980
1980
1980
1980
1980
ENDCHAR

STARTCHAR U+00BB
ENCODING 187
COMMENT 'double corner line from left to bottom double line'
SWIDTH 12000 0
DWIDTH 12 0
BBX 12 24 0 0
BITMAP
0000
0000
0000
0000
0000
0000
0000
0000
0000
FF80
FF80
0180
0180
F980
F980
1980
1980
1980
1980
1980
1980
1980
1980
1980
ENDCHAR

STARTCHAR U+00BC
ENCODING 188
COMMENT 'double corner line from top to left double line'
SWIDTH 12000 0
DWIDTH 12 0
BBX 12 24 0 0
BITMAP
1980
1980
1980
1980
1980
1980
1980
1980
1980
F980
F980
0180
0180
FF80
FF80
0000
0000
0000
0000
0000
0000
0000
0000
0000
ENDCHAR

STARTCHAR U+00BD
ENCODING 189
COMMENT 'double corner line from top to left single line'
SWIDTH 12000 0
DWIDTH 12 0
BBX 12 24 0 0
BITMAP
1980
1980
1980
1980
1980
1980
1980
1980
1980
1980
1980
FF80
FF80
0000
0000
0000
0000
0000
0000
0000
0000
0000
0000
0000
ENDCHAR

STARTCHAR U+00BE
ENCODING 190
COMMENT 'single corner line from top to left double line'
SWIDTH 12000 0
DWIDTH 12 0
BBX 12 24 0 0
BITMAP
0600
0600
0600
0600
0600
0600
0600
0600
0600
FE00
FE00
0600
0600
FE00
FE00
0000
0000
0000
0000
0000
0000
0000
0000
0000
ENDCHAR

STARTCHAR U+00BF
ENCODING 191
COMMENT 'single corner line from left to bottom'
SWIDTH 12000 0
DWIDTH 12 0
BBX 12 24 0 0
BITMAP
0000
0000
0000
0000
0000
0000
0000
0000
0000
0000
0000
FE00
FE00
0600
0600
0600
0600
0600
0600
0600
0600
0600
0600
0600
ENDCHAR

STARTCHAR U+00C0
ENCODING 192
COMMENT 'single corner line from top to right'
SWIDTH 12000 0
DWIDTH 12 0
BBX 12 24 0 0
BITMAP
0600
0600
0600
0600
0600
0600
0600
0600
0600
0600
0600
07F0
07F0
0000
0000
0000
0000
0000
0000
0000
0000
0000
0000
0000
ENDCHAR

STARTCHAR U+00C1
ENCODING 193
COMMENT 'single horizontal line with attached single line from top'
SWIDTH 12000 0
DWIDTH 12 0
BBX 12 24 0 0
BITMAP
0600
0600
0600
0600
0600
0600
0600
0600
0600
0600
0600
FFF0
FFF0
0000
0000
0000
0000
0000
0000
0000
0000
0000
0000
0000
ENDCHAR

STARTCHAR U+00C2
ENCODING 194
COMMENT 'single horizontal line with attached single line from bottom'
SWIDTH 12000 0
DWIDTH 12 0
BBX 12 24 0 0
BITMAP
0000
0000
0000
0000
0000
0000
0000
0000
0000
0000
0000
FFF0
FFF0
0600
0600
0600
0600
0600
0600
0600
0600
0600
0600
0600
ENDCHAR

STARTCHAR U+00C3
ENCODING 195
COMMENT 'single vertical line with attached single line from right'
SWIDTH 12000 0
DWIDTH 12 0
BBX 12 24 0 0
BITMAP
0600
0600
0600
0600
0600
0600
0600
0600
0600
0600
0600
07F0
07F0
0600
0600
0600
0600
0600
0600
0600
0600
0600
0600
0600
ENDCHAR

STARTCHAR U+00C4
ENCODING 196
COMMENT 'horizontal single line'
SWIDTH 12000 0
DWIDTH 12 0
BBX 12 24 0 0
BITMAP
0000
0000
0000
0000
0000
0000
0000
0000
0000
0000
0000
FFF0
FFF0
0000
0000
0000
0000
0000
0000
0000
0000
0000
0000
0000
ENDCHAR

STARTCHAR U+00C5
ENCODING 197
COMMENT 'intersecting single vertical and single horizontal lines'
SWIDTH 12000 0
DWIDTH 12 0
BBX 12 24 0 0
BITMAP
0600
0600
0600
0600
0600
0600
0600
0600
0600
0600
0600
FFF0
FFF0
0600
0600
0600
0600
0600
0600
0600
0600
0600
0600
0600
ENDCHAR

STARTCHAR U+00C6
ENCODING 198
COMMENT 'single vertical line with attached double line from right'
SWIDTH 12000 0
DWIDTH 12 0
BBX 12 24 0 0
BITMAP
0600
0600
0600
0600
0600
0600
0600
0600
0600
07F0
07F0
0600
0600
07F0
07F0
0600
0600
0600
0600
0600
0600
0600
0600
0600
ENDCHAR

STARTCHAR U+00C7
ENCODING 199
COMMENT 'double vertical line with attached single line from right'
SWIDTH 12000 0
DWIDTH 12 0
BBX 12 24 0 0
BITMAP
1980
1980
1980
1980
1980
1980
1980
1980
1980
1980
1980
19F0
19F0
1980
1980
1980
1980
1980
1980
1980
1980
1980
1980
1980
ENDCHAR

STARTCHAR U+00C8
ENCODING 200
COMMENT 'double corner line from top to right'
SWIDTH 12000 0
DWIDTH 12 0
BBX 12 24 0 0
BITMAP
1980
1980
1980
1980
1980
1980
1980
1980
1980
19F0
19F0
1800
1800
1FF0
1FF0
0000
0000
0000
0000
0000
0000
0000
0000
0000
ENDCHAR

STARTCHAR U+00C9
ENCODING 201
COMMENT 'double corner line from right to bottom'
SWIDTH 12000 0
DWIDTH 12 0
BBX 12 24 0 0
BITMAP
0000
0000
0000
0000
0000
0000
0000
0000
0000
1FF0
1FF0
1800
1800
19F0
19F0
1980
1980
1980
1980
1980
1980
1980
1980
1980
ENDCHAR

STARTCHAR U+00CA
ENCODING 202
COMMENT 'horizontal double line with attached double line from top'
SWIDTH 12000 0
DWIDTH 12 0
BBX 12 24 0 0
BITMAP
1980
1980
1980
1980
1980
1980
1980
1980
1980
F9F0
F9F0
0000
0000
FFF0
FFF0
0000
0000
0000
0000
0000
0000
0000
0000
0000
ENDCHAR

STARTCHAR U+00CB
ENCODING 203
COMMENT 'horizontal double line with attached double line from bottom'
SWIDTH 12000 0
DWIDTH 12 0
BBX 12 24 0 0
BITMAP
0000
0000
0000
0000
0000
0000
0000
0000
0000
FFF0
FFF0
0000
0000
F9F0
F9F0
1980
1980
1980
1980
1980
1980
1980
1980
1980
ENDCHAR

STARTCHAR U+00CC
ENCODING 204
COMMENT 'vertical double line with attached double line from right'
SWIDTH 12000 0
DWIDTH 12 0
BBX 12 24 0 0
BITMAP
1980
1980
1980
1980
1980
1980
1980
1980
1980
19F0
19F0
1800
1800
19F0
19F0
1980
1980
1980
1980
1980
1980
1980
1980
1980
ENDCHAR

STARTCHAR U+00CD
ENCODING 205
COMMENT 'horizontal double line'
SWIDTH 12000 0
DWIDTH 12 0
BBX 12 24 0 0
BITMAP
0000
0000
0000
0000
0000
0000
0000
0000
0000
FFF0
FFF0
0000
0000
FFF0
FFF0
0000
0000
0000
0000
0000
0000
0000
0000
0000
ENDCHAR

STARTCHAR U+00CE
ENCODING 206
COMMENT 'intersectioning horizontal and vertical double lines'
SWIDTH 12000 0
DWIDTH 12 0
BBX 12 24 0 0
BITMAP
1980
1980
1980
1980
1980
1980
1980
1980
1980
F9F0
F9F0
0000
0000
F9F0
F9F0
1980
1980
1980
1980
1980
1980
1980
1980
1980
ENDCHAR

STARTCHAR U+00CF
ENCODING 207
COMMENT 'horizontal double line with attached single line from top'
SWIDTH 12000 0
DWIDTH 12 0
BBX 12 24 0 0
BITMAP
0600
0600
0600
0600
0600
0600
0600
0600
0600
FFF0
FFF0
0000
0000
FFF0
FFF0
0000
0000
0000
0000
0000
0000
0000
0000
0000
ENDCHAR

STARTCHAR U+00D0
ENCODING 208
COMMENT 'horizontal single line with attached double line from top'
SWIDTH 12000 0
DWIDTH 12 0
BBX 12 24 0 0
BITMAP
1980
1980
1980
1980
1980
1980
1980
1980
1980
1980
1980
FFF0
FFF0
0000
0000
0000
0000
0000
0000
0000
0000
0000
0000
0000
ENDCHAR

STARTCHAR U+00D1
ENCODING 209
COMMENT 'horizontal double line with attached single line from bottom'
SWIDTH 12000 0
DWIDTH 12 0
BBX 12 24 0 0
BITMAP
0000
0000
0000
0000
0000
0000
0000
0000
0000
FFF0
FFF0
0000
0000
FFF0
FFF0
0600
0600
0600
0600
0600
0600
0600
0600
0600
ENDCHAR

STARTCHAR U+00D2
ENCODING 210
COMMENT 'horizontal single line with attached double line from bottom'
SWIDTH 12000 0
DWIDTH 12 0
BBX 12 24 0 0
BITMAP
0000
0000
0000
0000
0000
0000
0000
0000
0000
0000
0000
FFF0
FFF0
1980
1980
1980
1980
1980
1980
1980
1980
1980
1980
1980
ENDCHAR

STARTCHAR U+00D3
ENCODING 211
COMMENT 'corner double line from top to single line to the right'
SWIDTH 12000 0
DWIDTH 12 0
BBX 12 24 0 0
BITMAP
1980
1980
1980
1980
1980
1980
1980
1980
1980
1980
1980
1FF0
1FF0
0000
0000
0000
0000
0000
0000
0000
0000
0000
0000
0000
ENDCHAR

STARTCHAR U+00D4
ENCODING 212
COMMENT 'corner single line from top to double line to the right'
SWIDTH 12000 0
DWIDTH 12 0
BBX 12 24 0 0
BITMAP
0600
0600
0600
0600
0600
0600
0600
0600
0600
07F0
07F0
0600
0600
07F0
07F0
0000
0000
0000
0000
0000
0000
0000
0000
0000
ENDCHAR

STARTCHAR U+00D5
ENCODING 213
COMMENT 'corner single line from bottom to double line to the right'
SWIDTH 12000 0
DWIDTH 12 0
BBX 12 24 0 0
BITMAP
0000
0000
0000
0000
0000
0000
0000
0000
0000
07F0
07F0
0600
0600
07F0
07F0
0600
0600
0600
0600
0600
0600
0600
0600
0600
ENDCHAR

STARTCHAR U+00D6
ENCODING 214
COMMENT 'corner double line from bottom to single line to the right'
SWIDTH 12000 0
DWIDTH 12 0
BBX 12 24 0 0
BITMAP
0000
0000
0000
0000
0000
0000
0000
0000
0000
0000
0000
1FF0
1FF0
1980
1980
1980
1980
1980
1980
1980
1980
1980
1980
1980
ENDCHAR

STARTCHAR U+00D7
ENCODING 215
COMMENT 'double vertical line intersectioning with single horizontal line'
SWIDTH 12000 0
DWIDTH 12 0
BBX 12 24 0 0
BITMAP
1980
1980
1980
1980
1980
1980
1980
1980
1980
1980
1980
FFF0
FFF0
1980
1980
1980
1980
1980
1980
1980
1980
1980
1980
1980
ENDCHAR

STARTCHAR U+00D8
ENCODING 216
COMMENT 'single vertical line intersectioning with double horizontal line'
SWIDTH 12000 0
DWIDTH 12 0
BBX 12 24 0 0
BITMAP
0600
0600
0600
0600
0600
0600
0600
0600
0600
FFF0
FFF0
0600
0600
FFF0
FFF0
0600
0600
0600
0600
0600
0600
0600
0600
0600
ENDCHAR

STARTCHAR U+00D9
ENCODING 217
COMMENT 'single corner line from top to left'
SWIDTH 12000 0
DWIDTH 12 0
BBX 12 24 0 0
BITMAP
0600
0600
0600
0600
0600
0600
0600
0600
0600
0600
0600
FE00
FE00
0000
0000
0000
0000
0000
0000
0000
0000
0000
0000
0000
ENDCHAR

STARTCHAR U+00DA
ENCODING 218
COMMENT 'single corner line from bottom to right'
SWIDTH 12000 0
DWIDTH 12 0
BBX 12 24 0 0
BITMAP
0000
0000
0000
0000
0000
0000
0000
0000
0000
0000
0000
07F0
07F0
0600
0600
0600
0600
0600
0600
0600
0600
0600
0600
0600
ENDCHAR

STARTCHAR U+00DB
ENCODING 219
COMMENT 'solid block'
SWIDTH 12000 0
DWIDTH 12 0
BBX 12 24 0 0
BITMAP
FFF0
FFF0
FFF0
FFF0
FFF0
FFF0
FFF0
FFF0
FFF0
FFF0
FFF0
FFF0
FFF0
FFF0
FFF0
FFF0
FFF0
FFF0
FFF0
FFF0
FFF0
FFF0
FFF0
FFF0
ENDCHAR

STARTCHAR U+00DC
ENCODING 220
COMMENT 'half solid block, top is empty, bottom is filled'
SWIDTH 12000 0
DWIDTH 12 0
BBX 12 24 0 0
BITMAP
0000
0000
0000
0000
0000
0000
0000
0000
0000
0000
0000
0000
FFF0
FFF0
FFF0
FFF0
FFF0
FFF0
FFF0
FFF0
FFF0
FFF0
FFF0
FFF0
ENDCHAR

STARTCHAR U+00DD
ENCODING 221
COMMENT 'half solid block, left is filled, right is empty'
SWIDTH 12000 0
DWIDTH 12 0
BBX 12 24 0 0
BITMAP
FC00
FC00
FC00
FC00
FC00
FC00
FC00
FC00
FC00
FC00
FC00
FC00
FC00
FC00
FC00
FC00
FC00
FC00
FC00
FC00
FC00
FC00
FC00
FC00
ENDCHAR

STARTCHAR U+00DE
ENCODING 222
COMMENT 'half solid block, left is empty, right is filled'
SWIDTH 12000 0
DWIDTH 12 0
BBX 12 24 0 0
BITMAP
03F0
03F0
03F0
03F0
03F0
03F0
03F0
03F0
03F0
03F0
03F0
03F0
03F0
03F0
03F0
03F0
03F0
03F0
03F0
03F0
03F0
03F0
03F0
03F0
ENDCHAR

STARTCHAR U+00DF
ENCODING 223
COMMENT 'half solid block, top is filled, bottom is empty'
SWIDTH 12000 0
DWIDTH 12 0
BBX 12 24 0 0
BITMAP
FFF0
FFF0
FFF0
FFF0
FFF0
FFF0
FFF0
FFF0
FFF0
FFF0
FFF0
FFF0
0000
0000
0000
0000
0000
0000
0000
0000
0000
0000
0000
0000
ENDCHAR

STARTCHAR U+00E0
ENCODING 224
COMMENT 'small greek letter alpha'
SWIDTH 12000 0
DWIDTH 12 0
BBX 12 24 0 0
BITMAP
0000
0000
0000
0000
0000
0000
0020
0020
3C60
6440
66C0
6280
6380
6300
6300
6300
6780
6480
3CC0
0040
0040
0000
0000
0000
ENDCHAR

STARTCHAR U+00E1
ENCODING 225
COMMENT 'small greek letter beta'
SWIDTH 12000 0
DWIDTH 12 0
BBX 12 24 0 0
BITMAP
0000
0000
0000
0000
0000
0000
0000
1F00
3180
60C0
60C0
6180
6F00
61C0
6060
6060
6060
60C0
6F00
6000
6000
6000
6000
0000
ENDCHAR

STARTCHAR U+00E2
ENCODING 226
COMMENT 'capital greek letter gamma'
SWIDTH 12000 0
DWIDTH 12 0
BBX 12 24 0 0
BITMAP
0000
0000
7FE0
6060
6060
6000
6000
6000
6000
6000
6000
6000
6000
6000
6000
6000
6000
6000
6000
0000
0000
0000
0000
0000
ENDCHAR

STARTCHAR U+00E3
ENCODING 227
COMMENT 'small greek letter pi'
SWIDTH 12000 0
DWIDTH 12 0
BBX 12 24 0 0
BITMAP
0000
0000
0000
0000
0000
0000
0000
01E0
1F80
7980
1980
1980
1980
1980
1980
1980
1980
18C0
3060
0000
0000
0000
0000
0000
ENDCHAR

STARTCHAR U+00E4
ENCODING 228
COMMENT 'capital greek letter sigma'
SWIDTH 12000 0
DWIDTH 12 0
BBX 12 24 0 0
BITMAP
0000
0000
7FE0
6060
6060
3000
3000
1800
1800
0C00
0C00
0C00
1800
1800
3000
3000
6060
6060
7FE0
0000
0000
0000
0000
0000
ENDCHAR

STARTCHAR U+00E5
ENCODING 229
COMMENT 'small greek letter sigma'
SWIDTH 12000 0
DWIDTH 12 0
BBX 12 24 0 0
BITMAP
0000
0000
0000
0000
0000
0000
0000
1FE0
3600
6300
6180
6180
6180
6180
6180
6180
6180
3300
1E00
0000
0000
0000
0000
0000
ENDCHAR

STARTCHAR U+00E6
ENCODING 230
COMMENT 'small greek letter mu'
SWIDTH 12000 0
DWIDTH 12 0
BBX 12 24 0 0
BITMAP
0000
0000
0000
0000
0000
0000
0000
3180
3180
3180
3180
3180
3180
3180
3180
3980
3F80
36C0
3060
3000
6000
0000
0000
0000
ENDCHAR

STARTCHAR U+00E7
ENCODING 231
COMMENT 'small greek letter tau'
SWIDTH 12000 0
DWIDTH 12 0
BBX 12 24 0 0
BITMAP
0000
0000
0000
0000
0000
0000
0000
3FE0
6600
4600
0600
0600
0600
0600
0600
0600
0600
0300
0180
0000
0000
0000
0000
0000
ENDCHAR

STARTCHAR U+00E8
ENCODING 232
COMMENT 'capital greek letter phi'
SWIDTH 12000 0
DWIDTH 12 0
BBX 12 24 0 0
BITMAP
0000
0000
0F00
0600
0600
1F80
36C0
6660
6660
6660
6660
6660
6660
6660
36C0
1F80
0600
0600
0F00
0000
0000
0000
0000
0000
ENDCHAR

STARTCHAR U+00E9
ENCODING 233
COMMENT 'capital greek letter theta'
SWIDTH 12000 0
DWIDTH 12 0
BBX 12 24 0 0
BITMAP
0000
0000
1F80
30C0
6060
6060
6060
6060
6960
6F60
6F60
6960
6060
6060
6060
6060
6060
30C0
1F80
0000
0000
0000
0000
0000
ENDCHAR

STARTCHAR U+00EA
ENCODING 234
COMMENT 'capital greek letter omega'
SWIDTH 12000 0
DWIDTH 12 0
BBX 12 24 0 0
BITMAP
0000
0000
1F80
30C0
6060
6060
6060
6060
6060
6060
6060
6060
6060
6060
30C0
1980
1980
59A0
79E0
0000
0000
0000
0000
0000
ENDCHAR

STARTCHAR U+00EB
ENCODING 235
COMMENT 'small greek letter delta'
SWIDTH 12000 0
DWIDTH 12 0
BBX 12 24 0 0
BITMAP
0000
0000
0780
0CC0
1860
1860
1800
0C00
0600
0300
1F80
30C0
6060
6060
6060
6060
6060
30C0
1F80
0000
0000
0000
0000
0000
ENDCHAR

STARTCHAR U+00EC
ENCODING 236
COMMENT 'contour integral'
SWIDTH 12000 0
DWIDTH 12 0
BBX 12 24 0 0
BITMAP
0000
0000
01C0
0360
0660
0660
0600
1F80
36C0
6660
6660
6660
6660
6660
36C0
1F80
0600
0600
6600
6600
6C00
3800
0000
0000
ENDCHAR

STARTCHAR U+00ED
ENCODING 237
COMMENT 'small greek letter phi'
SWIDTH 12000 0
DWIDTH 12 0
BBX 12 24 0 0
BITMAP
0000
0000
0600
0600
0600
0600
0600
1F80
36C0
6660
6660
6660
6660
6660
6660
6660
6660
36C0
1F80
0600
0600
0600
0600
0000
ENDCHAR

STARTCHAR U+00EE
ENCODING 238
COMMENT 'part of union sign'
SWIDTH 12000 0
DWIDTH 12 0
BBX 12 24 0 0
BITMAP
0000
0000
1FE0
3FE0
7000
6000
6000
6000
6000
7FE0
7FE0
6000
6000
6000
6000
6000
7000
3FE0
1FE0
0000
0000
0000
0000
0000
ENDCHAR

STARTCHAR U+00EF
ENCODING 239
COMMENT 'Logical AND'
SWIDTH 12000 0
DWIDTH 12 0
BBX 12 24 0 0
BITMAP
0000
1F80
3FC0
70E0
6060
6060
6060
6060
6060
6060
6060
6060
6060
6060
6060
6060
6060
6060
6060
0000
0000
0000
0000
0000
ENDCHAR

STARTCHAR U+00F0
ENCODING 240
COMMENT 'Equal sign with three bars'
SWIDTH 12000 0
DWIDTH 12 0
BBX 12 24 0 0
BITMAP
0000
0000
0000
0000
7FE0
7FE0
0000
0000
0000
7FE0
7FE0
0000
0000
0000
7FE0
7FE0
0000
0000
0000
0000
0000
0000
0000
0000
ENDCHAR

STARTCHAR U+00F1
ENCODING 241
COMMENT 'Plus-minus sign'
SWIDTH 12000 0
DWIDTH 12 0
BBX 12 24 0 0
BITMAP
0000
0000
0600
0600
0600
0600
7FE0
7FE0
0600
0600
0600
0600
0000
0000
7FE0
7FE0
0000
0000
0000
0000
0000
0000
0000
0000
ENDCHAR

STARTCHAR U+00F2
ENCODING 242
COMMENT 'Greater-equal sign'
SWIDTH 12000 0
DWIDTH 12 0
BBX 12 24 0 0
BITMAP
0000
0000
0000
0000
7000
3C00
0F00
03C0
00E0
03C0
0F00
3C00
7000
0000
7FE0
7FE0
0000
0000
0000
0000
0000
0000
0000
0000
ENDCHAR

STARTCHAR U+00F3
ENCODING 243
COMMENT 'Less-equal sign'
SWIDTH 12000 0
DWIDTH 12 0
BBX 12 24 0 0
BITMAP
0000
0000
0000
0000
00E0
03C0
0F00
3C00
7000
3C00
0F00
03C0
00E0
0000
7FE0
7FE0
0000
0000
0000
0000
0000
0000
0000
0000
ENDCHAR

STARTCHAR U+00F4
ENCODING 244
COMMENT 'integral top part'
SWIDTH 12000 0
DWIDTH 12 0
BBX 12 24 0 0
BITMAP
0000
0000
01C0
0360
0660
0660
0600
0600
0600
0600
0600
0600
0600
0600
0600
0600
0600
0600
0600
0600
0600
0600
0600
0600
ENDCHAR

STARTCHAR U+00F5
ENCODING 245
COMMENT 'integral bottom part'
SWIDTH 12000 0
DWIDTH 12 0
BBX 12 24 0 0
BITMAP
0600
0600
0600
0600
0600
0600
0600
0600
0600
0600
0600
0600
0600
0600
0600
0600
0600
0600
6600
6600
6C00
3800
0000
0000
ENDCHAR

STARTCHAR U+00F6
ENCODING 246
COMMENT 'division sign'
SWIDTH 12000 0
DWIDTH 12 0
BBX 12 24 0 0
BITMAP
0000
0000
0000
0000
0000
0600
0600
0000
0000
7FE0
7FE0
0000
0000
0600
0600
0000
0000
0000
0000
0000
0000
0000
0000
0000
ENDCHAR

STARTCHAR U+00F7
ENCODING 247
COMMENT 'approximation sign'
SWIDTH 12000 0
DWIDTH 12 0
BBX 12 24 0 0
BITMAP
0000
0000
0000
0000
0000
0000
0000
1C60
36C0
6380
0000
0000
0000
1C60
36C0
6380
0000
0000
0000
0000
0000
0000
0000
0000
ENDCHAR

STARTCHAR U+00F8
ENCODING 248
COMMENT 'degree sign'
SWIDTH 12000 0
DWIDTH 12 0
BBX 12 24 0 0
BITMAP
0000
0000
1E00
3300
2100
2100
3300
1E00
0000
0000
0000
0000
0000
0000
0000
0000
0000
0000
0000
0000
0000
0000
0000
0000
ENDCHAR

STARTCHAR U+00F9
ENCODING 249
COMMENT 'medium dot'
SWIDTH 12000 0
DWIDTH 12 0
BBX 12 24 0 0
BITMAP
0000
0000
0000
0000
0000
0000
0000
0000
0000
0000
0780
0780
0780
0780
0000
0000
0000
0000
0000
0000
0000
0000
0000
0000
ENDCHAR

STARTCHAR U+00FA
ENCODING 250
COMMENT 'small dot'
SWIDTH 12000 0
DWIDTH 12 0
BBX 12 24 0 0
BITMAP
0000
0000
0000
0000
0000
0000
0000
0000
0000
0000
0000
0600
0600
0000
0000
0000
0000
0000
0000
0000
0000
0000
0000
0000
ENDCHAR

STARTCHAR U+00FB
ENCODING 251
COMMENT 'square root'
SWIDTH 12000 0
DWIDTH 12 0
BBX 12 24 0 0
BITMAP
0000
0000
07E0
0600
0600
0600
0600
0600
0600
0600
0600
0600
0600
0600
0600
0600
0600
4600
6600
3600
1E00
0E00
0000
0000
ENDCHAR

STARTCHAR U+00FC
ENCODING 252
COMMENT 'power of n'
SWIDTH 12000 0
DWIDTH 12 0
BBX 12 24 0 0
BITMAP
0000
0000
0000
6E00
7300
6180
6180
6180
6180
6180
6180
6180
6180
0000
0000
0000
0000
0000
0000
0000
0000
0000
0000
0000
ENDCHAR

STARTCHAR U+00FD
ENCODING 253
COMMENT 'power of two'
SWIDTH 12000 0
DWIDTH 12 0
BBX 12 24 0 0
BITMAP
0000
0000
0000
3E00
6300
6300
0300
0600
1C00
3000
6000
6000
7F00
0000
0000
0000
0000
0000
0000
0000
0000
0000
0000
0000
ENDCHAR

STARTCHAR U+00FE
ENCODING 254
COMMENT 'Square in the middle'
SWIDTH 12000 0
DWIDTH 12 0
BBX 12 24 0 0
BITMAP
0000
0000
0000
0000
0000
0000
0000
0000
3FC0
3FC0
3FC0
3FC0
3FC0
3FC0
3FC0
3FC0
0000
0000
0000
0000
0000
0000
0000
0000
ENDCHAR

STARTCHAR U+00FF
ENCODING 255
SWIDTH 12000 0
DWIDTH 12 0
BBX 12 24 0 0
BITMAP
0000
0000
0000
0000
0000
0000
0000
0000
0000
0000
0000
0000
0000
0000
0000
0000
0000
0000
0000
0000
0000
0000
0000
0000
ENDCHAR
ENDFONT
